:FULLY-SPECIFIED
:FORCE-ALL-JOINTS-BE-3DOF
:DEGREES
272
root 7.78756 15.8975 -25.0071 9.70183 51.0008 4.10827
lfemur -28.729 20.954 -17.117
ltibia 47.0925 -0 0
lfoot -17.1726 -13.7839 0.00831451
ltoes 53.7633 -0 0
rfemur -27.744 -7.4915 12.1758
rtibia 57.3124 -0 0
rfoot 15.3732 -8.45394 0.237438
rtoes 4.53737 -0 0
lowerback 4.23966 -2.95376 -3.40488
upperback 1.32066 -4.00882 0.404762
thorax -0.70225 -1.96704 2.4891
lowerneck -8.32178 -8.52852 -1.91694
upperneck 0.642207 -11.3041 4.30262
head 2.06274 -5.55097 1.22842
lclavicle -1.54962e-14 -4.95155e-15 -8.35553e-31
lhumerus -48.9042 -37.2746 112.708
lradius 60.6511 -0 0
lwrist 20.2925 0 0
lhand 9.20263 12.1531 -0.0151709
lfingers 7.12502 -0 0
lthumb 34.3629 38.7977 -0.0346566
rclavicle -1.54962e-14 -4.95155e-15 -8.35553e-31
rhumerus -39.1577 20.7855 -67.6063
rradius 56.974 -0 0
rwrist 29.0076 0 0
rhand -10.2369 -3.2713 -0.192003
rfingers 7.12502 -0 0
rthumb 15.7255 -32.2525 -0.0679058
273
root 7.82321 15.8845 -24.9724 9.73775 51.2091 4.40982
lfemur -28.3731 20.8978 -17.1347
ltibia 47.236 -0 0
lfoot -17.1765 -14.1304 0.00848116
ltoes 53.9012 -0 0
rfemur -28.4105 -8.02842 12.7776
rtibia 57.3258 -0 0
rfoot 15.4263 -7.71658 0.242234
rtoes 4.39909 -0 0
lowerback 4.39636 -2.96754 -3.55041
upperback 1.42839 -4.03559 0.276607
thorax -0.674504 -1.98064 2.4441
lowerneck -8.24312 -8.5811 -1.92576
upperneck 0.551828 -11.3776 4.48315
head 2.03564 -5.58547 1.28952
lclavicle -1.60076e-14 -5.219e-15 -8.52264e-31
lhumerus -48.7477 -37.4401 112.345
lradius 60.6074 -0 0
lwrist 20.3239 0 0
lhand 9.32726 12.1332 -0.0154744
lfingers 7.12502 -0 0
lthumb 34.4811 38.7497 -0.03535
rclavicle -1.60076e-14 -5.219e-15 -8.52264e-31
rhumerus -39.0257 22.2172 -67.7043
rradius 57.6674 -0 0
rwrist 28.2912 0 0
rhand -9.78804 -3.34152 -0.195857
rfingers 7.12502 -0 0
rthumb 16.1567 -32.2784 -0.0692685
274
root 7.85887 15.8715 -24.9376 9.77558 51.4173 4.71295
lfemur -28.0174 20.8417 -17.1527
ltibia 47.3795 -0 0
lfoot -17.1804 -14.4769 0.00862402
ltoes 54.0392 -0 0
rfemur -29.0837 -8.55834 13.3865
rtibia 57.3391 -0 0
rfoot 15.4795 -6.97921 0.246346
rtoes 4.2608 -0 0
lowerback 4.55309 -2.98092 -3.69598
upperback 1.53618 -4.06212 0.148397
thorax -0.646746 -1.99422 2.39909
lowerneck -8.16444 -8.63366 -1.93465
upperneck 0.461189 -11.4509 4.66384
head 2.00851 -5.61994 1.35063
lclavicle -1.6519e-14 -5.48646e-15 -8.66587e-31
lhumerus -48.5895 -37.6048 111.982
lradius 60.5637 -0 0
lwrist 20.3553 0 0
lhand 9.45189 12.1133 -0.0157345
lfingers 7.12502 -0 0
lthumb 34.5993 38.7017 -0.0359443
rclavicle -1.6519e-14 -5.48646e-15 -8.66587e-31
rhumerus -38.895 23.6491 -67.7997
rradius 58.3609 -0 0
rwrist 27.5748 0 0
rhand -9.33918 -3.41176 -0.199161
rfingers 7.12502 -0 0
rthumb 16.588 -32.3042 -0.0704367
275
root 7.89453 15.8585 -24.9029 9.81536 51.6254 5.01769
lfemur -27.6617 20.7858 -17.1711
ltibia 47.523 -0 0
lfoot -17.1844 -14.8234 0.00874307
ltoes 54.1772 -0 0
rfemur -29.7634 -9.08111 14.0026
rtibia 57.3524 -0 0
rfoot 15.5327 -6.24184 0.249774
rtoes 4.12251 -0 0
lowerback 4.70985 -2.99391 -3.84159
upperback 1.64403 -4.08841 0.0201331
thorax -0.618978 -2.00777 2.35407
lowerneck -8.08575 -8.68622 -1.94362
upperneck 0.370292 -11.5239 4.84471
head 1.98134 -5.65439 1.41177
lclavicle -1.70304e-14 -5.75391e-15 -8.78524e-31
lhumerus -48.4297 -37.7688 111.616
lradius 60.52 -0 0
lwrist 20.3867 0 0
lhand 9.57652 12.0934 -0.0159513
lfingers 7.12502 -0 0
lthumb 34.7175 38.6537 -0.0364395
rclavicle -1.70304e-14 -5.75391e-15 -8.78524e-31
rhumerus -38.7655 25.0812 -67.8927
rradius 59.0543 -0 0
rwrist 26.8583 0 0
rhand -8.89031 -3.48203 -0.201915
rfingers 7.12502 -0 0
rthumb 17.0193 -32.3301 -0.0714103
276
root 7.93018 15.8455 -24.8681 9.85711 51.8333 5.32406
lfemur -27.3062 20.7299 -17.1898
ltibia 47.6665 -0 0
lfoot -17.1883 -15.1698 0.00883832
ltoes 54.3151 -0 0
rfemur -30.4498 -9.59658 14.6258
rtibia 57.3657 -0 0
rfoot 15.5859 -5.50447 0.252518
rtoes 3.98422 -0 0
lowerback 4.86665 -3.0065 -3.98723
upperback 1.75194 -4.11446 -0.108184
thorax -0.591199 -2.02131 2.30904
lowerneck -8.00703 -8.73876 -1.95266
upperneck 0.279136 -11.5966 5.02573
head 1.95412 -5.6888 1.47292
lclavicle -1.75418e-14 -6.02137e-15 -8.88073e-31
lhumerus -48.2682 -37.9319 111.249
lradius 60.4763 -0 0
lwrist 20.4181 0 0
lhand 9.70115 12.0734 -0.0161248
lfingers 7.12502 -0 0
lthumb 34.8356 38.6056 -0.0368357
rclavicle -1.75418e-14 -6.02137e-15 -8.88073e-31
rhumerus -38.6369 26.5135 -67.9831
rradius 59.7477 -0 0
rwrist 26.1419 0 0
rhand -8.44143 -3.55231 -0.204118
rfingers 7.12502 -0 0
rthumb 17.4505 -32.3559 -0.0721892
277
root 7.96584 15.8325 -24.8334 9.90087 52.0411 5.63211
lfemur -26.9507 20.6742 -17.2089
ltibia 47.8101 -0 0
lfoot -17.1923 -15.5163 0.00890976
ltoes 54.4531 -0 0
rfemur -31.143 -10.1046 15.2562
rtibia 57.379 -0 0
rfoot 15.6392 -4.76709 0.254575
rtoes 3.84593 -0 0
lowerback 5.02349 -3.01869 -4.1329
upperback 1.85992 -4.14027 -0.236555
thorax -0.563409 -2.03482 2.26401
lowerneck -7.9283 -8.7913 -1.96178
upperneck 0.187722 -11.669 5.20692
head 1.92687 -5.72319 1.5341
lclavicle -1.80532e-14 -6.28883e-15 -8.95235e-31
lhumerus -48.1049 -38.0942 110.881
lradius 60.4326 -0 0
lwrist 20.4495 0 0
lhand 9.82578 12.0535 -0.0162548
lfingers 7.12502 -0 0
lthumb 34.9538 38.5576 -0.0371329
rclavicle -1.80532e-14 -6.28883e-15 -8.95235e-31
rhumerus -38.5093 27.946 -68.071
rradius 60.4412 -0 0
rwrist 25.4255 0 0
rhand -7.99255 -3.62261 -0.205771
rfingers 7.12502 -0 0
rthumb 17.8818 -32.3818 -0.0727735
278
root 8.0015 15.8195 -24.7986 9.94665 52.2487 5.94185
lfemur -26.5954 20.6185 -17.2284
ltibia 47.9536 -0 0
lfoot -17.1962 -15.8628 0.00895739
ltoes 54.591 -0 0
rfemur -31.8429 -10.6051 15.8938
rtibia 57.3923 -0 0
rfoot 15.6925 -4.02972 0.255947
rtoes 3.70764 -0 0
lowerback 5.18036 -3.03048 -4.27862
upperback 1.96796 -4.16583 -0.364978
thorax -0.535608 -2.04831 2.21897
lowerneck -7.84954 -8.84381 -1.97097
upperneck 0.0960508 -11.7411 5.38828
head 1.89958 -5.75755 1.59529
lclavicle -1.85647e-14 -6.55628e-15 -9.00009e-31
lhumerus -47.94 -38.2557 110.512
lradius 60.3889 -0 0
lwrist 20.4809 0 0
lhand 9.95041 12.0336 -0.0163415
lfingers 7.12502 -0 0
lthumb 35.072 38.5096 -0.037331
rclavicle -1.85647e-14 -6.55628e-15 -9.00009e-31
rhumerus -38.3824 29.3787 -68.1565
rradius 61.1346 -0 0
rwrist 24.7091 0 0
rhand -7.54367 -3.69293 -0.206873
rfingers 7.12502 -0 0
rthumb 18.3131 -32.4077 -0.073163
279
root 8.03716 15.8065 -24.7639 9.99449 52.4562 6.25333
lfemur -26.2402 20.563 -17.2483
ltibia 48.0971 -0 0
lfoot -17.2001 -16.2093 0.0089812
ltoes 54.729 -0 0
rfemur -32.5496 -11.0978 16.5386
rtibia 57.4056 -0 0
rfoot 15.7458 -3.29234 0.256633
rtoes 3.56935 -0 0
lowerback 5.33725 -3.04187 -4.42436
upperback 2.07606 -4.19116 -0.493454
thorax -0.507796 -2.06178 2.17393
lowerneck -7.77077 -8.89632 -1.98024
upperneck 0.00412278 -11.813 5.5698
head 1.87226 -5.79187 1.65651
lclavicle -1.90761e-14 -6.82374e-15 -9.02397e-31
lhumerus -47.7735 -38.4163 110.141
lradius 60.3452 -0 0
lwrist 20.5123 0 0
lhand 10.075 12.0136 -0.0163849
lfingers 7.12502 -0 0
lthumb 35.1902 38.4616 -0.03743
rclavicle -1.90761e-14 -6.82374e-15 -9.02397e-31
rhumerus -38.2562 30.8115 -68.2396
rradius 61.8281 -0 0
rwrist 23.9926 0 0
rhand -7.0948 -3.76324 -0.207424
rfingers 7.12502 -0 0
rthumb 18.7443 -32.4336 -0.0733578
280
root 8.07281 15.7936 -24.7291 10.0444 52.6635 6.56657
lfemur -25.8851 20.5076 -17.2685
ltibia 48.2406 -0 0
lfoot -17.2041 -16.5558 0.0089812
ltoes 54.8669 -0 0
rfemur -33.2631 -11.5826 17.1907
rtibia 57.4189 -0 0
rfoot 15.7991 -2.55496 0.256633
rtoes 3.43106 -0 0
lowerback 5.49418 -3.05287 -4.57014
upperback 2.18421 -4.21624 -0.621982
thorax -0.479973 -2.07523 2.12887
lowerneck -7.69198 -8.94882 -1.98958
upperneck -0.0880615 -11.8845 5.75149
head 1.84489 -5.82617 1.71774
lclavicle -1.95875e-14 -7.09119e-15 -9.02397e-31
lhumerus -47.6052 -38.5761 109.769
lradius 60.3016 -0 0
lwrist 20.5436 0 0
lhand 10.1997 11.9937 -0.0163849
lfingers 7.12502 -0 0
lthumb 35.3083 38.4135 -0.03743
rclavicle -1.95875e-14 -7.09119e-15 -9.02397e-31
rhumerus -38.1304 32.2444 -68.3202
rradius 62.5215 -0 0
rwrist 23.2762 0 0
rhand -6.64591 -3.83357 -0.207424
rfingers 7.12502 -0 0
rthumb 19.1756 -32.4594 -0.0733578
